<svg width="34" height="34" viewBox="0 0 34 34" fill="none" xmlns="http://www.w3.org/2000/svg">
<path d="M28.305 0H5.695C2.55 0 0 2.55 0 5.695V28.305C0 31.45 2.55 34 5.695 34H28.305C31.45 34 34 31.45 34 28.305V5.695C34 2.55 31.45 0 28.305 0Z" fill="#5181B8"/>
<path d="M5.83729 11.1615C5.30556 11.1615 4.86245 11.4037 5.03969 12.3727C5.21694 13.3416 6.54627 16.4099 8.93906 19.3975C11.3319 22.3851 14.1678 24 17.3581 24C18.8647 24 19.042 23.354 19.042 22.9503C19.042 22.5466 19.042 21.0932 19.042 20.6087C19.042 20.1242 19.5737 19.7205 20.2827 20.1242C20.9916 20.5279 23.7389 23.1925 24.182 23.5963C24.6251 24 25.3341 24 25.7772 24C26.1317 24 27.1066 24 27.8155 24C28.5245 24 29.4107 23.5963 28.7904 22.5466C28.17 21.4969 25.2455 18.8323 24.5365 18.1863C24.2707 17.8634 24.5365 17.7019 24.891 17.1366C25.2455 16.5714 27.3724 13.9876 28.2587 12.2112C28.6131 11.4037 28.3473 11 27.6383 11C27.0179 11 25.1569 11 24.7138 11C24.3593 11 24.0048 11.0807 23.4731 12.0497C22.9413 13.0186 20.5485 17.1366 19.3078 17.1366C18.8647 17.1366 18.8647 16.8137 18.8647 16.4907C18.8647 16.1677 18.8647 12.2919 18.8647 11.8075C18.8647 11.323 18.5989 11 17.9785 11C17.3581 11 14.345 11 13.9019 11C13.4588 11 13.1929 11.4037 13.4588 11.8075C13.7246 12.2112 14.345 12.8571 14.345 13.1801C14.345 13.5031 14.345 16.7329 14.345 17.3789C14.345 18.0248 14.1678 18.4286 13.636 18.1863C13.1043 17.8634 10.7115 15.2795 9.64804 12.0497C9.38217 11.2422 8.93906 11.0807 8.40733 11.0807C8.05284 11.1615 5.83729 11.1615 5.83729 11.1615Z" fill="white"/>
</svg>
